# xmcd
#
# Track frame offsets: 
#        150
#        11020
#        22562
#        33611
#        44775
#        55971
#        68292
#        79202
#        90617
#        101502
#        113906
#        126619
#        137663
#        149177
#        161869
#        173380
#        184941
#        197428
#        210270
#        223409
#        235019
#        248114
#        260392
#        273083
#        285199
#
# Disc length: 3973 seconds
#
# Revision: 2
# Processed by: cddbd v1.5.2PL0 Copyright (c) Steve Scherf et al.
# Submitted via: ExactAudioCopy v1.0b3
#
DISCID=640f8319
DTITLE=Penny, Hank - King Of Hillbilly Bebop [Disc 1]
DYEAR=2003
DGENRE=Hillbilly Bebop
TTITLE0=Sweet Talkin' Mama
TTITLE1=Back Up A Little
TTITLE2=Cowboy's Swing
TTITLE3=Mama's Getting Younger
TTITLE4=Hesitation Blues
TTITLE5=Hot Time Mama
TTITLE6=All Night And All Day Long
TTITLE7=It Ain't Gonna Rain No More
TTITLE8=Mississippi Muddle
TTITLE9=Won't You Ride In My Little Red Wagon
TTITLE10=Red Hot Papa
TTITLE11=(Say Mister Have You Met) Rosie's Sister
TTITLE12=Oh Yes? Take Another Guess
TTITLE13=Hawaiian Honeymoon
TTITLE14=Peach Tree Shuffle
TTITLE15=Tobacco State Swing
TTITLE16=Blue Ridge Blues
TTITLE17=Lonesome Train Blues
TTITLE18=Hope You're Satisfied
TTITLE19=Talkin' 'Bout You
TTITLE20=Steel Guitar Stomp
TTITLE21=When You Cry You Cry Alone
TTITLE22=Now Ain't You Glad Dear
TTITLE23=Two Timin' Mama
TTITLE24=Guess Who Took Your Place
EXTD=
EXTT0=
EXTT1=
EXTT2=
EXTT3=
EXTT4=
EXTT5=
EXTT6=
EXTT7=
EXTT8=
EXTT9=
EXTT10=
EXTT11=
EXTT12=
EXTT13=
EXTT14=
EXTT15=
EXTT16=
EXTT17=
EXTT18=
EXTT19=
EXTT20=
EXTT21=
EXTT22=
EXTT23=
EXTT24=
PLAYORDER=
